<?xml version="1.0" standalone="no"?> <!DOCTYPE svg PUBLIC "-//W3C//DTD SVG 1.0//EN" "http://www.w3.org/TR/2001/REC-SVG-20010904/DTD/svg10.dtd" > <svg xmlns="http://www.w3.org/2000/svg" width="100%" height="100%">
<defs >
<font id="hoeflertitlinghtfltroman" horiz-adv-x="797" ><font-face
    font-family="HoeflerTitling HTF-Lt"
    units-per-em="2048"
    panose-1="0 0 0 0 0 0 0 0 0 0"
    ascent="2039"
    descent="-584"
    alphabetic="0" />
<missing-glyph horiz-adv-x="1024" />
<glyph unicode=" " glyph-name="space" horiz-adv-x="409" />
<glyph unicode="!" glyph-name="exclam" horiz-adv-x="505" d="M365 1384Q365 1241 313 823T260 385Q260 378 255 375T245 375T238 387Q174 1148 174 1384Q174 1427 197 1456T268 1485Q316 1485 340 1458T365 1384ZM348 78Q348 35 321 5T250 -25Q211 -25 185 1T158
68Q158 116 184 146T254 176Q294 176 321 148T348 78Z" />
<glyph unicode="&quot;" glyph-name="quotedbl" horiz-adv-x="774" d="M578 1436Q582 1461 600 1474T643 1487Q676 1487 698 1470T721 1430Q721 1417 715 1405Q703 1379 648 1257T552 1043T496 909Q494 904 487 903T473 906T469 920Q537 1185 578 1436ZM287 1436Q293
1461 310 1474T352 1487Q385 1487 407 1470T430 1430Q430 1417 424 1405Q413 1381 357 1257T262 1042T205 909Q203 904 196 903T182 906T178 920Q246 1185 287 1436Z" />
<glyph unicode="#" glyph-name="numbersign" horiz-adv-x="1474" d="M1012 848Q1330 853 1370 856Q1384 857 1386 831Q1388 801 1372 796Q1369 795 1366 795Q1323 798 1012 803Q1010 779 1009 742T1006 696L993 422Q993 417 992 401T991 375Q1304 380 1348 383Q1358
384 1361 368T1360 337T1343 322Q1257 328 989 328Q973 -61 975 -117Q975 -127 957 -130T922 -128T905 -111Q917 3 934 330H887H539H520Q506 -15 506 -117Q507 -127 490 -130T455 -128T438 -111Q446 -36 465 330Q152 325 109 322Q96 320 93 345Q90 375 106 382Q109
383 113 383Q165 379 467 375Q468 386 469 406T471 436L485 725Q486 735 487 762T489 803Q175 798 131 795Q121 794 117 810T118 841T135 856Q188 852 492 848Q506 1212 504 1276Q504 1286 521 1289T556 1287T573 1270Q563 1181 547 848H588H924H956Q973 1133 973
1276Q972 1286 989 1289T1024 1287T1040 1270Q1035 1227 1012 848ZM956 803H909H561H545Q542 735 539 696L524 422Q524 417 523 401T522 375H565H899H938Q940 399 940 436L952 725Q952 737 956 803Z" />
<glyph unicode="$" glyph-name="dollar" horiz-adv-x="995" d="M440 -25Q376 -21 297 0T150 53Q132 61 111 334Q110 341 115 344T127 347T135 340Q175 204 255 122T444 25Q459 239 463 348L473 555Q336 628 292 660Q164 751 157 874Q156 882 156 891Q156 1029
249 1121T502 1225Q502 1263 503 1311T504 1366Q504 1376 521 1379T556 1376T573 1358Q568 1300 563 1227Q690 1220 782 1171Q801 1162 807 932Q807 922 797 921T784 928Q756 1021 698 1086T559 1171Q556 1098 549 960T539 784L535 711Q544 706 563 696Q607 673
629 660T691 623T751 579T800 530T842 470T866 401T877 317Q877 181 776 85T502 -23Q498 -189 498 -207Q498 -217 480 -220T445 -217T428 -199Q428 -193 430 -162T435 -95T440 -25ZM500 1180H498Q409 1180 356 1127T303 973Q303 897 348 845T481 739L485 813Q493
956 500 1180ZM504 20Q606 24 666 87T727 262Q727 349 675 410T526 526L516 332Q515 317 513 260T509 139T504 20Z" />
<glyph unicode="%" glyph-name="percent" horiz-adv-x="1556" d="M711 1057Q750 1044 791 1044Q877 1044 982 1098T1167 1249Q1179 1262 1205 1244T1219 1208Q1184 1160 1043 952T856 674L743 502Q409 -14 389 -49Q383 -55 369 -51T343 -33T338 -8Q373 39 514
246T702 526L815 698L1110 1147Q946 1006 780 1006Q747 1006 717 1012Q719 997 719 969Q719 903 700 829T644 684T557 555T439 462T297 426Q203 426 148 491T92 684Q92 750 111 824T167 969T254 1098T372 1191T514 1227Q589 1227 641 1184T711 1057ZM840 231Q840
314 870 408T953 584T1088 720T1262 774T1409 709T1464 518Q1464 452 1445 378T1389 233T1302 104T1184 11T1042 -25Q950 -25 895 40T840 231ZM602 1073Q557 1115 535 1188Q517 1192 504 1192Q456 1192 402 1126T306 967T237 769T209 590Q209 459 307 459Q371 459
442 568T557 820T602 1063V1073ZM1053 8Q1117 8 1188 117T1303 369T1348 612Q1348 741 1249 741Q1186 741 1115 632T999 381T954 137Q954 8 1053 8Z" />
<glyph unicode="&amp;" glyph-name="ampersand" horiz-adv-x="1652" d="M1610 870Q1482 851 1422 817T1288 688L1016 344Q1157 182 1247 117T1411 51Q1499 51 1575 131Q1581 136 1587 133T1594 124T1589 111Q1529 34 1465 -7T1309 -49Q1260 -49 1213 -34T1130
4T1052 66T981 138T909 221Q859 155 817 111T721 29T603 -27T461 -45Q299 -45 183 56T66 315Q66 454 174 571T444 750Q389 814 361 873T332 1006Q332 1066 353 1123T413 1227T512 1302T645 1331Q763 1331 841 1259T920 1096Q920 1009 846 928T625 780L987 379Q1082
495 1143 606T1204 776Q1204 854 1008 870Q1000 872 1000 885T1008 899Q1052 899 1150 895T1319 891Q1388 891 1475 895T1610 899Q1616 899 1616 886T1610 870ZM795 1116Q795 1193 759 1241T645 1290Q565 1290 517 1229T469 1075Q469 1010 498 950T594 815Q696
874 745 952T795 1116ZM883 254L473 711Q358 644 301 556T244 348Q244 232 334 145T557 57Q713 57 883 254Z" />
<glyph unicode="&apos;" glyph-name="quotesingle" horiz-adv-x="483" d="M287 1436Q293 1461 310 1474T352 1487Q385 1487 407 1470T430 1430Q430 1417 424 1405Q413 1381 357 1257T262 1042T205 909Q203 904 196 903T182 906T178 920Q246 1185 287 1436Z" />
<glyph unicode="(" glyph-name="parenleft" horiz-adv-x="724" d="M750 -512Q758 -522 750 -529Q746 -532 741 -528Q629 -449 533 -345T362 -112T244 173T201 494Q201 658 244 814T362 1098T532 1332T741 1516Q750 1522 753 1511Q755 1505 750 1499Q365 1109 365
494Q365 -122 750 -512Z" />
<glyph unicode=")" glyph-name="parenright" horiz-adv-x="724" d="M524 494Q524 329 481 173T363 -111T192 -344T-16 -528Q-24 -534 -28 -525Q-30 -518 -25 -512Q360 -122 360 494Q360 1109 -25 1499Q-34 1510 -24 1516Q-21 1519 -16 1516Q97 1437 192 1332T363
1099T481 814T524 494Z" />
<glyph unicode="*" glyph-name="asterisk" horiz-adv-x="593" d="M522 1126Q522 1108 510 1095T477 1081Q462 1081 446 1090Q426 1102 371 1155T307 1214Q307 1204 325 1129T344 1030T331 992T297 977T263 991T250 1030T268 1129T287 1214Q278 1209 223 1156T147
1090Q133 1081 115 1081Q96 1081 84 1094T72 1126Q72 1155 100 1171Q121 1184 194 1205T276 1231Q268 1236 195 1257T100 1290Q72 1306 72 1335Q72 1353 84 1367T115 1382Q127 1382 147 1372Q167 1360 222 1307T287 1249Q287 1258 269 1333T250 1432Q250 1455 263
1470T297 1485T331 1470T344 1432Q344 1408 326 1333T307 1249Q317 1254 372 1307T446 1372Q468 1382 477 1382Q498 1382 510 1368T522 1335Q522 1308 494 1290Q473 1278 399 1257T317 1231Q325 1227 399 1206T494 1171Q522 1154 522 1126Z" />
<glyph unicode="+" glyph-name="plus" horiz-adv-x="729" d="M342 492V543Q342 598 334 754Q333 764 349 767T382 766T397 750Q389 598 389 528V492H440Q495 492 651 500Q660 500 664 485T664 454T647 438Q495 446 426 446H389V418Q389 340 397 184Q398 174 382
171T349 172T334 188Q342 340 342 444V446H315Q234 446 82 438Q72 438 68 453T68 484T86 500Q238 492 342 492Z" />
<glyph unicode="," glyph-name="comma" horiz-adv-x="444" d="M342 8Q342 -75 283 -161T104 -307Q100 -309 95 -306T88 -298T88 -291Q252 -197 252 -55Q252 -18 238 -18Q235 -18 227 -21T211 -25Q169 -25 146 2T123 72Q123 111 150 138T217 166Q271 166 306 120T342 8Z" />
<glyph unicode="-" glyph-name="hyphen" horiz-adv-x="729" d="M651 500Q660 500 664 485T664 454T647 438Q495 446 426 446H315Q234 446 82 438Q72 438 68 453T68 484T86 500Q238 492 342 492H440Q495 492 651 500Z" />
<glyph unicode="." glyph-name="period" horiz-adv-x="444" d="M322 76Q322 34 294 5T219 -25Q178 -25 151 -1T123 63Q123 111 150 140T223 170Q265 170 293 143T322 76Z" />
<glyph unicode="/" glyph-name="slash" horiz-adv-x="737" d="M702 1513Q650 1363 528 963L276 131Q136 -328 94 -494Q90 -502 75 -502T45 -492T35 -469Q66 -380 227 145L483 989Q612 1408 643 1538Q647 1547 662 1547T691 1537T702 1513Z" />
<glyph unicode="0" glyph-name="zero" horiz-adv-x="1083" d="M995 438Q995 312 935 205T770 36T541 -27Q354 -27 221 109T88 438Q88 631 220 767T541 903Q665 903 769 841T934 672T995 438ZM891 438Q891 600 793 711T541 823Q389 823 290 712T190 438Q190 278
289 167T541 55Q694 55 792 166T891 438Z" />
<glyph unicode="1" glyph-name="one" horiz-adv-x="772" d="M659 -6Q558 0 397 0Q192 0 113 -6Q104 -8 104 2T115 14Q137 20 202 26T281 39Q290 44 295 67T303 179T307 438Q307 609 304 698T295 811T281 840Q267 847 201 852T115 862Q101 865 104 878Q106 886
113 885Q219 877 397 877Q525 877 659 885Q667 886 668 876Q668 865 657 862Q637 858 570 853T489 840Q480 834 476 810T468 699T465 438Q465 266 468 179T475 68T489 39Q502 32 568 26T657 14Q669 12 668 1Q667 -7 659 -6Z" />
<glyph unicode="2" glyph-name="two" horiz-adv-x="907" d="M879 252Q822 -2 807 -2Q779 -2 656 -1T473 0Q235 0 92 -8Q87 -9 83 -5T76 4T74 10Q349 226 458 355T567 604Q567 686 520 737T385 788Q245 788 137 666Q132 661 127 663T121 671T121 682Q247 903 434
903Q559 903 643 830T727 643Q727 532 620 411T283 139Q304 141 723 141Q783 143 812 167T860 258Q862 270 873 263Q880 258 879 252Z" />
<glyph unicode="3" glyph-name="three" horiz-adv-x="874" d="M754 2Q754 -81 697 -168T551 -323T349 -433T129 -477Q81 -477 51 -459T20 -399Q20 -368 41 -351T94 -334Q127 -334 189 -365T285 -397Q430 -397 510 -295T590 -18Q590 95 516 164T324 233Q277 233
205 197Q200 194 194 203T188 215Q512 405 512 604Q512 692 460 746T305 801Q207 801 121 719Q116 714 111 717T104 726T106 737Q262 903 401 903Q527 903 603 823T680 631Q680 553 614 478T430 344Q584 315 669 225T754 2Z" />
<glyph unicode="4" glyph-name="four" horiz-adv-x="1056" d="M1042 29Q1024 30 780 35Q780 -391 786 -461Q786 -464 701 -465T616 -461Q620 -420 625 35Q588 37 539 37Q148 37 57 29Q45 28 38 44T37 70Q99 146 251 329T527 662T733 920Q739 927 752 929T775 929T786
920Q778 829 778 229V147Q818 148 879 149T983 152T1042 154Q1046 155 1047 124T1046 61T1042 29ZM625 147V229Q625 520 623 711Q589 670 413 464T158 152Q309 145 539 145Q588 145 625 147Z" />
<glyph unicode="5" glyph-name="five" horiz-adv-x="806" d="M686 866Q686 818 677 777T651 735Q648 735 584 734T454 730T325 720T248 700Q236 691 221 656T205 602Q205 571 295 532Q464 455 570 344T676 109Q676 -9 622 -112T475 -290T267 -416T20 -492Q11 -492
9 -481T16 -467Q264 -408 397 -290T530 -4Q530 140 451 231T174 414Q127 437 127 485Q127 505 137 532Q219 732 238 803Q254 856 322 870Q326 871 485 882T668 901Q677 904 681 895T686 866Z" />
<glyph unicode="6" glyph-name="six" horiz-adv-x="1032" d="M1004 1333Q851 1275 729 1195T525 1025T389 835T311 633T287 430Q287 243 367 127T571 10Q673 10 728 94T784 313Q784 444 726 521T559 598Q504 598 455 571Q448 568 442 575T440 588Q479 630 537
657T649 684Q745 684 815 634T918 512T950 360Q950 257 894 168T742 26T539 -27Q438 -27 356 11T223 112T143 257T115 428Q115 529 148 633T251 844T423 1044T672 1220T995 1356Q1002 1358 1006 1353T1011 1342T1004 1333Z" />
<glyph unicode="7" glyph-name="seven" horiz-adv-x="972" d="M909 868Q869 787 695 455T367 -173T205 -487Q199 -503 166 -499Q138 -497 139 -483Q139 -480 141 -477Q154 -458 294 -200T598 359T805 737Q784 735 256 735Q198 734 169 695T119 565Q116 553 104
560Q97 564 98 571Q110 621 120 703T138 836T152 887Q180 887 315 882T510 877Q713 877 891 887Q897 887 903 879T909 868Z" />
<glyph unicode="8" glyph-name="eight" horiz-adv-x="954" d="M860 1061Q860 968 787 880T588 725Q742 593 799 507T856 324Q856 176 751 75T477 -27T207 60T106 285Q106 510 408 659Q277 767 222 848T166 1028Q166 1163 266 1263T512 1364Q669 1364 764 1281T860
1061ZM727 1069Q727 1178 664 1254T506 1331Q413 1331 354 1264T295 1100Q295 1023 349 949T563 741Q640 806 683 892T727 1069ZM700 254Q700 358 649 431T434 639Q345 583 293 490T240 287Q240 169 312 89T487 8Q583 8 641 75T700 254Z" />
<glyph unicode="9" glyph-name="nine" horiz-adv-x="1032" d="M932 463Q932 362 901 256T800 39T631 -169T385 -351T63 -489Q56 -491 52 -487T48 -476T55 -467Q207 -409 329 -324T530 -145T662 57T737 267T760 473Q760 663 687 766T496 870Q420 870 366 825T287
708T262 547Q262 418 325 340T496 262Q548 262 602 289Q608 292 614 285T616 272Q578 231 519 204T406 176Q310 176 238 225T131 347T96 500Q96 578 128 651T215 780T349 869T516 903Q617 903 698 868T829 771T905 632T932 463Z" />
<glyph unicode=":" glyph-name="colon" horiz-adv-x="444" d="M322 721Q322 678 294 648T219 618Q179 618 151 643T123 709Q123 757 150 786T223 815Q265 815 293 788T322 721ZM322 76Q322 34 294 5T219 -25Q178 -25 151 -1T123 63Q123 111 150 140T223 170Q265
170 293 143T322 76Z" />
<glyph unicode=";" glyph-name="semicolon" horiz-adv-x="444" d="M322 721Q322 678 294 648T219 618Q179 618 151 643T123 709Q123 757 150 786T223 815Q265 815 293 788T322 721ZM342 8Q342 -75 283 -161T104 -307Q100 -309 95 -306T88 -298T88 -291Q252 -197
252 -55Q252 -18 238 -18Q235 -18 227 -21T211 -25Q169 -25 146 2T123 72Q123 111 150 138T217 166Q271 166 306 120T342 8Z" />
<glyph unicode="&lt;" glyph-name="less" horiz-adv-x="784" d="M109 477Q213 524 350 592L444 639Q510 673 629 741Q637 746 647 735T660 710T651 690Q488 617 446 596L344 545Q227 488 182 463Q266 416 365 369L455 326Q491 309 551 280T651 233Q660 227 658
214T643 189T621 184Q546 228 428 289L324 342Q196 408 113 444Q102 450 100 460T109 477Z" />
<glyph unicode="=" glyph-name="equal" horiz-adv-x="729" d="M426 575H313Q234 575 82 567Q72 566 68 581T68 612T86 627Q200 621 340 621H438Q535 621 649 627Q659 628 663 613T663 582T645 567Q493 575 426 575ZM426 317H313Q196 317 82 311Q72 310 68 325T68
356T86 371Q257 362 340 362H438Q478 362 649 371Q659 372 663 357T663 326T645 311Q531 317 426 317Z" />
<glyph unicode="&gt;" glyph-name="greater" horiz-adv-x="784" d="M676 449Q574 404 434 334L340 287Q282 257 156 184Q148 179 137 190T125 215T133 236Q252 287 338 330L440 381Q568 443 602 463Q483 527 420 557L330 600Q297 616 258 635T192 666T133 692Q125
698 127 712T141 737T164 741Q222 707 356 637L461 584Q570 526 672 481Q682 476 684 466T676 449Z" />
<glyph unicode="?" glyph-name="question" horiz-adv-x="735" d="M674 1022Q674 954 658 898T614 805T552 736T478 681T401 637T330 592T273 543T236 478T229 393Q231 382 222 380T207 387Q170 443 170 516Q170 570 194 616T257 697T342 764T435 827T521 892T584
969T608 1065Q608 1180 547 1248T367 1317Q339 1317 287 1295T184 1272Q152 1272 126 1299T100 1360Q100 1409 132 1438T219 1468Q287 1468 366 1433T514 1339T628 1196T674 1022ZM317 80Q317 37 290 6T219 -25Q180 -25 154 1T127 68Q127 116 153 146T223 176Q263
176 290 149T317 80Z" />
<glyph unicode="@" glyph-name="at" horiz-adv-x="1665" d="M913 137Q913 222 954 348Q954 351 946 354T934 354Q862 214 780 133T627 51Q574 51 538 93T502 223Q502 347 569 484T743 714T954 807Q1017 807 1047 784Q1059 775 1063 782Q1088 820 1112 864Q1115
869 1125 870T1148 870T1171 864T1190 856T1196 848L1034 285Q1012 208 1012 158Q1012 124 1030 106T1075 92Q1158 109 1229 149T1355 250T1441 397T1473 584Q1473 750 1406 879T1207 1083T895 1159Q753 1159 629 1101T413 939T270 687T217 365Q217 66 399 -113T897
-293Q1056 -293 1229 -223T1501 -35Q1506 -28 1514 -34T1513 -51Q1400 -188 1214 -278T815 -369Q698 -369 592 -342T394 -257T235 -118T130 79T92 330Q92 499 161 659T346 940T628 1134T977 1208Q1138 1208 1279 1137T1504 941T1589 668Q1589 428 1432 260T1008
51Q959 45 936 66T913 137ZM963 782Q906 782 843 722T734 577T658 402T627 252Q627 206 651 178T709 150Q766 150 834 231Q908 330 972 493T1036 715Q1036 745 1016 763T963 782Z" />
<glyph unicode="A" glyph-name="A" horiz-adv-x="1415" d="M1444 -8Q1371 0 1202 0Q956 0 883 -8Q877 -8 874 -3T874 9T885 18Q907 24 961 29T1030 41Q1046 51 1050 67T1042 144T989 319L887 606H723Q508 606 406 602Q240 154 240 92Q240 62 265 47T373 18Q381
17 384 11T385 -2T377 -8Q300 0 188 0Q52 0 -23 -8Q-28 -8 -30 -2T-31 10T-20 18Q54 27 84 43T139 94Q182 152 309 483T680 1483Q685 1493 710 1492T739 1483Q916 982 1008 725T1162 308T1248 106T1294 51Q1309 43 1366 33T1442 18Q1450 16 1453 10T1453 -2T1444
-8ZM868 651L653 1237Q651 1243 647 1243T641 1237Q482 817 424 653Q479 651 723 651H868Z" />
<glyph unicode="B" glyph-name="B" horiz-adv-x="1314" d="M1221 403Q1221 279 1150 185T954 42T674 -8Q657 -8 578 -4T436 0Q173 0 96 -8Q91 -8 89 -3T88 9T98 18Q118 23 169 29T236 45Q245 51 250 88T258 277T262 723Q262 1018 259 1170T250 1359T236 1403Q221
1411 170 1418T98 1430Q91 1432 89 1438T88 1450T96 1456Q193 1446 422 1446Q482 1446 546 1451T633 1456Q846 1456 983 1362T1120 1112Q1120 994 1029 912T782 797Q776 796 776 788T784 778Q998 749 1109 645T1221 403ZM928 1104Q928 1250 843 1328T594 1407Q562
1407 542 1406T506 1401T488 1397T472 1388L461 1380Q451 1374 446 1348T436 1198T432 831Q432 808 449 803Q473 797 598 797Q745 797 836 887T928 1104ZM1028 369Q1028 541 919 645T598 750Q506 750 487 749T449 743Q432 738 432 715Q432 342 440 223T473 82Q503
57 544 49T692 41Q844 41 936 131T1028 369Z" />
<glyph unicode="C" glyph-name="C" horiz-adv-x="1466" d="M1401 342Q1394 279 1366 158T1323 33Q1097 -41 872 -41Q690 -41 539 23T291 194T140 441T86 735Q86 883 149 1021T315 1261T560 1424T852 1485Q1104 1485 1317 1415Q1330 1411 1340 1311T1352 1130Q1353
1120 1342 1119T1329 1126Q1259 1291 1143 1363T834 1436Q718 1436 617 1386T442 1245T324 1022T281 729Q281 573 328 437T455 207T637 61T852 8Q1233 8 1378 348Q1379 353 1385 354T1396 353T1401 342Z" />
<glyph unicode="D" glyph-name="D" horiz-adv-x="1609" d="M1522 711Q1522 565 1463 433T1303 204T1060 50T760 -8Q742 -8 621 -4T436 0Q173 0 96 -8Q91 -8 89 -3T89 9T100 18Q119 23 170 29T236 45Q245 51 250 88T258 277T262 723Q262 1018 259 1170T250 1359T236
1403Q221 1411 171 1418T100 1430Q92 1432 89 1438T88 1450T96 1456Q193 1446 422 1446Q484 1446 596 1451T731 1456Q889 1456 1020 1418T1244 1311T1399 1148T1492 944T1522 711ZM1329 717Q1329 1052 1156 1229T680 1407Q508 1407 461 1380Q451 1374 446 1343T436
1164T432 723Q432 480 440 339T461 151T492 88Q512 69 534 61T613 47T778 41Q1029 41 1179 222T1329 717Z" />
<glyph unicode="E" glyph-name="E" horiz-adv-x="1290" d="M1225 350Q1220 335 1205 246T1176 76T1157 -8Q1001 0 641 0Q252 0 96 -8Q79 -8 83 5Q86 15 98 18Q117 23 167 29T233 45Q243 51 248 87T258 277T262 723Q262 1016 258 1169T249 1360T233 1403Q219 1411
169 1418T98 1430Q84 1434 83 1446Q82 1456 96 1456Q291 1446 600 1446Q895 1446 1090 1456Q1096 1453 1102 1385T1113 1240T1124 1149Q1128 1139 1113 1138T1096 1143Q1034 1313 983 1350Q948 1378 883 1389T655 1401Q502 1401 459 1376Q449 1370 444 1343T434
1195T430 840Q430 792 446 782Q466 773 502 771T641 768Q725 768 760 774T815 797Q870 842 891 977Q892 984 900 986T916 987T924 979Q915 851 915 745Q915 642 924 514Q924 509 916 507T900 506T891 516Q868 652 819 692Q787 723 641 723Q538 723 502 721T446
709Q430 701 430 651Q431 395 435 266T444 108T459 72Q502 47 696 47Q866 47 937 59T1051 104Q1084 128 1128 206T1194 356Q1195 359 1203 360T1219 359T1225 350Z" />
<glyph unicode="F" glyph-name="F" horiz-adv-x="1189" d="M1112 1149Q1114 1143 1107 1140T1092 1138T1081 1143Q1021 1312 971 1350Q933 1379 874 1390T655 1401Q502 1401 459 1376Q450 1370 445 1340T436 1185T432 827Q432 777 446 770Q466 761 495 759T614
756Q701 756 735 761T788 782Q843 831 864 963Q865 970 873 972T889 973T897 965Q889 853 889 733Q889 614 897 500Q897 495 889 492T873 492T864 504Q841 636 793 680Q754 711 614 711Q524 711 495 709T446 696Q432 689 432 639Q432 381 435 249T444 83T459 45Q473
38 547 31T643 18Q652 16 654 10T655 -2T647 -8Q571 0 360 0Q171 0 96 -8Q91 -8 89 -3T88 9T98 18Q118 23 148 26T201 34T233 45Q244 51 249 89T258 276T262 723Q262 1021 259 1171T250 1359T233 1403Q220 1411 169 1418T98 1430Q84 1434 83 1446Q82 1456 96 1456Q291
1446 600 1446Q879 1446 1077 1456Q1083 1453 1089 1385T1101 1240T1112 1149Z" />
<glyph unicode="G" glyph-name="G" horiz-adv-x="1607" d="M868 10Q1050 10 1130 56T1210 209Q1205 530 1182 543Q1168 551 1081 564T973 582Q958 585 961 600Q963 609 971 608Q1063 598 1294 598Q1484 598 1579 608Q1586 609 1587 600Q1590 585 1575 582Q1557
577 1519 570T1450 556T1407 543Q1380 528 1380 164Q1380 145 1383 125T1387 99T1386 86Q1381 81 1350 67T1263 35T1144 1T1001 -27T852 -39Q710 -39 587 3T373 119T217 291T119 503T86 737Q86 885 149 1023T315 1262T560 1424T852 1485Q970 1485 1106 1460T1335
1397Q1349 1392 1359 1288T1372 1104Q1372 1094 1363 1093T1350 1098Q1203 1436 834 1436Q718 1436 617 1386T440 1246T322 1023T279 731Q279 571 327 435T455 206T643 62T868 10Z" />
<glyph unicode="H" glyph-name="H" horiz-adv-x="1650" d="M1556 -8Q1480 0 1305 0Q1135 0 1059 -8Q1054 -8 1051 -3T1050 9T1061 18Q1080 23 1128 29T1192 45Q1201 50 1206 86T1216 259T1221 651Q1221 701 1204 709Q1186 718 1118 720T825 723Q601 723 533 721T446
709Q430 701 430 651Q431 394 435 259T444 87T459 45Q474 36 522 30T590 18Q597 16 599 10T600 -2T592 -8Q516 0 346 0Q171 0 96 -8Q90 -8 87 -3T87 9T98 18Q117 23 167 29T233 45Q243 51 248 87T258 277T262 723Q262 1016 258 1169T249 1360T233 1403Q219 1411
169 1418T98 1430Q90 1432 87 1438T87 1450T96 1456Q189 1446 346 1446Q497 1446 592 1456Q597 1456 599 1451T600 1439T590 1430Q570 1425 522 1418T459 1403Q449 1398 444 1364T434 1203T430 840Q430 792 446 782Q465 773 533 771T825 768Q1050 768 1118 770T1204
782Q1221 792 1221 840Q1220 1076 1216 1202T1207 1363T1192 1403Q1177 1411 1129 1418T1061 1430Q1053 1432 1051 1438T1051 1450T1059 1456Q1154 1446 1305 1446Q1461 1446 1556 1456Q1561 1456 1564 1451T1564 1439T1552 1430Q1532 1425 1482 1418T1417 1403Q1407
1397 1402 1361T1393 1170T1389 723Q1389 432 1393 278T1402 88T1417 45Q1432 36 1482 30T1552 18Q1561 16 1564 10T1564 -2T1556 -8Z" />
<glyph unicode="I" glyph-name="I" horiz-adv-x="776" d="M653 -8Q577 0 389 0Q198 0 125 -8Q120 -8 118 -3T117 9T127 18Q147 23 204 29T276 45Q286 51 291 88T299 277T303 723Q303 1019 300 1170T291 1359T276 1403Q262 1411 206 1417T127 1430Q120 1432 118
1438T117 1450T125 1456Q217 1446 389 1446Q558 1446 653 1456Q658 1456 661 1451T662 1439T651 1430Q629 1424 573 1418T502 1403Q491 1397 486 1359T477 1171T473 723Q473 426 476 277T485 89T502 45Q516 36 573 30T651 18Q659 16 661 10T661 -2T653 -8Z" />
<glyph unicode="J" glyph-name="J" horiz-adv-x="749" d="M647 1454Q656 1456 658 1444Q659 1431 645 1427Q624 1422 570 1417T502 1403Q492 1397 488 1343T480 1042T481 291Q483 140 445 -8T337 -275T161 -469T-70 -543Q-161 -543 -211 -508T-262 -420Q-262 -380
-235 -354T-162 -328Q-128 -328 -99 -341T-51 -370T5 -399T88 -412Q132 -412 163 -399T222 -348T268 -242T295 -63T305 205Q305 703 301 975T292 1322T276 1403Q262 1411 205 1416T127 1427Q113 1431 117 1447Q119 1455 125 1454Q235 1446 389 1446Q537 1446 647
1454Z" />
<glyph unicode="K" glyph-name="K" horiz-adv-x="1445" d="M1438 -8Q1334 0 1184 0Q1007 0 905 -8Q900 -8 898 -2T898 10T907 18Q1051 32 1051 57Q1049 73 888 279T608 621Q564 672 540 688T483 705Q452 705 442 697T432 672Q432 414 435 274T444 92T459 45Q474
36 522 30T590 18Q597 16 599 10T600 -2T592 -8Q519 0 346 0Q171 0 96 -8Q90 -8 88 -3T88 9T98 18Q117 23 167 29T233 45Q244 51 249 89T258 276T262 723Q262 1021 259 1171T250 1359T233 1403Q219 1411 169 1418T98 1430Q91 1432 88 1438T87 1450T96 1456Q189
1446 346 1446Q500 1446 592 1456Q597 1456 599 1451T600 1439T590 1430Q570 1425 522 1418T459 1403Q450 1399 445 1351T436 1165T432 788Q432 767 437 760T457 752Q527 752 582 807Q1057 1311 1057 1380Q1057 1398 1036 1409T948 1430Q940 1431 937 1437T937
1450T946 1456Q1073 1446 1190 1446Q1236 1446 1262 1447T1312 1452T1352 1456Q1357 1456 1359 1451T1360 1439T1350 1430Q1334 1426 1296 1420T1235 1407T1202 1391Q1178 1373 981 1164T662 813Q1240 78 1307 43Q1326 33 1371 28T1436 18Q1444 16 1446 10T1446
-2T1438 -8Z" />
<glyph unicode="L" glyph-name="L" horiz-adv-x="1257" d="M1212 371Q1208 357 1197 262T1175 80T1157 -10Q962 0 641 0Q213 0 96 -10Q91 -10 89 -5T88 7T98 16Q118 21 169 28T233 43Q244 49 249 86T258 274T262 723Q262 1020 259 1170T250 1358T233 1401Q222
1408 201 1411T149 1418T98 1427Q91 1429 89 1436T88 1448T96 1454Q171 1446 346 1446Q490 1446 592 1454Q598 1454 600 1449T600 1436T590 1427Q573 1423 524 1417T459 1401Q449 1396 444 1359T436 1170T432 723T435 282T444 106T459 70Q502 45 696 45Q864 45
934 58T1047 102Q1078 127 1120 215T1182 377Q1184 383 1203 379Q1213 377 1212 371Z" />
<glyph unicode="M" glyph-name="M" horiz-adv-x="1906" d="M1839 -8Q1763 0 1577 0Q1388 0 1315 -8Q1309 -8 1307 -3T1306 9T1317 18Q1337 23 1384 30T1446 45Q1470 59 1479 100T1488 285T1477 733Q1467 935 1458 1217Q1458 1223 1449 1223T1438 1221L932 -23Q927
-33 911 -33T891 -25Q779 264 622 639T379 1200Q377 1205 370 1205T362 1198Q361 1158 353 996T342 723Q333 425 335 275T343 88T358 45Q372 36 420 30T487 18Q495 16 497 10T497 -2T489 -8Q413 0 274 0Q124 0 51 -8Q45 -8 42 -3T42 9T53 18Q72 23 123 29T190 45Q205
53 213 61T231 98T245 164T256 283T268 461T281 723Q291 940 292 1067T286 1262T266 1351T231 1391Q198 1413 96 1430Q89 1431 87 1437T86 1450T94 1456Q166 1446 319 1446Q368 1446 444 1454Q456 1454 461 1444Q532 1242 956 256Q958 252 964 252T973 256L1454
1444Q1456 1454 1470 1454Q1548 1446 1634 1446Q1750 1446 1815 1456Q1821 1456 1824 1450T1824 1438T1812 1430Q1703 1411 1686 1397Q1661 1378 1651 1357T1634 1263T1631 1071T1645 723Q1656 490 1663 359T1676 158T1687 69T1700 45Q1715 36 1766 30T1837 18Q1844
16 1846 10T1847 -2T1839 -8Z" />
<glyph unicode="N" glyph-name="N" horiz-adv-x="1710" d="M1649 1456Q1654 1456 1657 1451T1658 1439T1647 1430Q1628 1425 1564 1415T1485 1397Q1469 1388 1462 1371T1450 1281T1442 1086T1438 723Q1434 212 1450 -29Q1451 -36 1441 -39T1420 -41T1405 -35L387
1169Q378 1179 373 1173Q371 1171 371 1167Q370 1116 367 973T362 723Q361 437 367 280T379 90T397 51Q409 45 429 40T479 29T526 18Q534 16 537 10T538 -2T530 -8Q454 0 315 0Q166 0 90 -8Q85 -8 83 -3T82 9T92 18Q111 23 143 28T200 39T236 51Q266 68 277 107T295
280T301 723Q301 960 292 1096T269 1278T233 1348Q177 1412 84 1423Q76 1424 73 1430T72 1443T80 1450Q147 1444 242 1446Q355 1452 371 1456Q375 1457 382 1454T391 1448Q523 1282 843 902T1350 307Q1356 301 1362 301T1368 307Q1369 345 1372 481T1376 723Q1377
900 1375 1029T1368 1226T1358 1333T1347 1383T1335 1397Q1324 1403 1299 1408T1239 1419T1186 1430Q1178 1432 1175 1438T1175 1450T1184 1456Q1276 1446 1425 1446Q1556 1446 1649 1456Z" />
<glyph unicode="O" glyph-name="O" horiz-adv-x="1650" d="M1561 709Q1561 561 1504 423T1349 183T1115 20T829 -41Q688 -41 567 1T359 117T209 289T117 501T86 735Q86 883 143 1021T298 1261T532 1424T817 1485Q958 1485 1079 1443T1288 1326T1437 1154T1530
942T1561 709ZM1366 715Q1366 876 1322 1012T1201 1240T1021 1384T799 1436Q565 1436 423 1244T281 729Q281 568 325 432T446 204T626 60T848 8Q1081 8 1223 200T1366 715Z" />
<glyph unicode="P" glyph-name="P" horiz-adv-x="1261" d="M1194 1038Q1194 947 1158 866T1052 718T865 614T600 575Q560 575 430 582Q431 342 435 223T444 77T459 45Q473 36 540 30T629 18Q637 16 640 10T641 -2T633 -8Q556 0 346 0Q171 0 94 -8Q89 -8 87 -3T87
9T98 18Q117 23 167 29T233 45Q243 51 248 87T258 277T262 723Q262 1016 258 1169T249 1360T233 1403Q219 1411 169 1418T98 1430Q90 1432 87 1438T86 1450T94 1456Q191 1446 420 1446Q478 1446 562 1451T688 1456Q916 1456 1055 1338T1194 1038ZM999 1030Q999
1203 899 1305T598 1407Q506 1407 459 1380Q430 1363 430 670Q430 646 446 641Q479 633 612 633Q808 633 903 735T999 1030Z" />
<glyph unicode="Q" glyph-name="Q" horiz-adv-x="1650" d="M1610 -381Q1482 -436 1352 -436Q1143 -436 968 -329T715 -35Q594 -19 492 30T315 153T189 321T112 519T86 735Q86 883 143 1021T298 1261T532 1424T817 1485Q992 1485 1136 1420T1371 1246T1511 999T1561
709Q1561 528 1479 367T1252 98T932 -35Q981 -122 1047 -187T1186 -289T1335 -344T1489 -362Q1544 -362 1606 -354Q1610 -353 1612 -359T1614 -372T1610 -381ZM1368 715Q1368 876 1324 1012T1202 1240T1021 1384T799 1436Q565 1436 423 1244T281 729Q281 568 325
432T446 204T626 60T848 8Q1081 8 1224 200T1368 715Z" />
<glyph unicode="R" glyph-name="R" horiz-adv-x="1347" d="M1434 -8Q1359 0 1270 0Q1244 0 1171 -5T1085 -10Q1055 -10 963 156Q775 492 727 561Q671 644 639 663T518 682Q472 682 446 676Q430 673 430 647Q431 389 435 255T444 86T459 45Q474 36 522 30T590 18Q597
16 599 10T600 -2T592 -8Q516 0 346 0Q171 0 96 -8Q90 -8 87 -3T87 9T98 18Q117 23 167 29T233 45Q243 51 248 87T258 277T262 723Q262 1016 258 1169T249 1360T233 1403Q219 1411 169 1418T98 1430Q90 1432 87 1438T87 1450T96 1456Q189 1446 420 1446Q482 1446
561 1451T662 1456Q871 1456 1006 1348T1141 1079Q1141 956 1049 855T807 721Q796 718 807 702Q826 681 848 646T915 537T983 426Q1105 228 1162 154T1276 57Q1344 30 1430 18Q1438 17 1441 11T1442 -2T1434 -8ZM946 1071Q946 1222 865 1314T625 1407Q506 1407
459 1380Q450 1374 444 1331T434 1148T430 764Q430 740 446 735Q471 729 641 729Q713 729 772 759T869 838T926 948T946 1071Z" />
<glyph unicode="S" glyph-name="S" horiz-adv-x="1118" d="M1030 360Q1030 192 899 77T539 -39Q383 -39 154 57Q146 61 139 127T127 285T119 399Q118 409 129 411T143 406Q209 194 315 102T588 10Q716 10 793 88T870 311Q870 392 832 459T732 572T596 660T448
743T313 831T213 945T174 1094Q174 1265 297 1376T635 1487Q714 1487 779 1470T926 1411Q934 1407 938 1358T945 1232T950 1135Q951 1127 946 1124T935 1122T928 1128Q821 1438 575 1438Q469 1438 402 1371T334 1174Q334 1116 358 1067T422 980T514 910T624 846T739
781T849 707T942 619T1006 505T1030 360Z" />
<glyph unicode="T" glyph-name="T" horiz-adv-x="1517" d="M1430 1079Q1428 1071 1410 1071T1389 1081Q1370 1144 1355 1183T1315 1263T1260 1325T1184 1360T1079 1374Q940 1374 854 1368Q844 1241 844 723Q844 429 847 277T856 88T870 45Q885 36 940 30T1016
18Q1023 16 1025 10T1026 -2T1018 -8Q942 0 758 0Q570 0 494 -8Q489 -8 486 -3T485 9T496 18Q516 23 574 29T645 45Q656 51 661 89T670 276T674 723Q674 1238 664 1368Q490 1374 475 1374Q395 1374 335 1355T231 1295T159 1209T102 1094Q99 1087 89 1085T70 1084T61
1092Q67 1132 104 1279T143 1464Q143 1474 157 1477T176 1475Q204 1451 250 1440T411 1424T766 1419Q1016 1419 1141 1424T1313 1441T1382 1475Q1387 1482 1401 1479T1413 1464Q1408 1426 1419 1273T1430 1079Z" />
<glyph unicode="U" glyph-name="U" horiz-adv-x="1591" d="M1581 1456Q1586 1456 1588 1451T1589 1439T1579 1430Q1559 1425 1495 1415T1415 1397Q1395 1386 1388 1356Q1374 1297 1368 907Q1366 808 1362 518Q1359 348 1285 221T1086 27T801 -39Q540 -39 383 120T225
537Q225 940 222 1134T214 1363T199 1403Q184 1411 133 1418T61 1430Q54 1432 52 1438T51 1450T59 1456Q156 1446 311 1446Q463 1446 555 1456Q561 1456 563 1451T563 1439T553 1430Q533 1425 485 1418T422 1403Q413 1398 408 1357T399 1124T395 575Q395 457 421
366T492 216T599 120T730 67T879 51Q963 51 1036 79T1168 165T1263 318T1300 539Q1306 934 1301 1123T1290 1350T1268 1397Q1253 1405 1195 1415T1118 1430Q1111 1432 1108 1438T1107 1450T1114 1456Q1209 1446 1358 1446Q1489 1446 1581 1456Z" />
<glyph unicode="V" glyph-name="V" horiz-adv-x="1468" d="M1481 1456Q1486 1456 1488 1450T1488 1438T1477 1430Q1404 1419 1374 1404T1317 1354Q1227 1232 768 -35Q763 -45 738 -44T711 -35Q392 803 274 1088T115 1397Q103 1403 81 1408T29 1419T-20 1430Q-28
1432 -31 1438T-32 1450T-23 1456Q70 1446 207 1446Q440 1446 532 1456Q537 1456 540 1451T541 1439T530 1430Q507 1424 453 1419T385 1407Q369 1398 367 1381T379 1303T436 1128L782 207Q784 201 791 201T801 207Q845 324 915 507T1030 812T1123 1060T1193 1261T1217
1356Q1217 1386 1192 1401T1083 1430Q1076 1431 1074 1437T1073 1450T1081 1456Q1174 1446 1268 1446Q1384 1446 1481 1456Z" />
<glyph unicode="W" glyph-name="W" horiz-adv-x="2037" d="M2079 1456Q2084 1456 2086 1450T2087 1438T2077 1430Q2000 1419 1969 1404T1915 1354Q1846 1241 1366 -35Q1361 -45 1337 -44T1309 -35L1036 616L766 -35Q761 -45 737 -44T709 -35Q598 252 440 666Q266
1121 211 1247T113 1397Q102 1403 81 1408T28 1419T-23 1430Q-30 1432 -32 1438T-33 1450T-25 1456Q72 1446 205 1446Q385 1446 477 1456Q483 1456 486 1451T487 1439T475 1430Q456 1425 438 1422T408 1416T385 1407Q369 1397 365 1381T374 1303T430 1128Q508 912
782 207Q784 201 788 201T795 207L1008 690Q886 980 821 1123T722 1323T659 1397Q629 1413 565 1430Q557 1432 554 1438T553 1450T561 1456Q656 1446 752 1446Q969 1446 1061 1456Q1067 1456 1069 1451T1069 1439T1059 1430Q1037 1424 991 1420T930 1407Q913 1397
908 1381T916 1301T975 1128L1083 868Q1270 1304 1270 1356Q1270 1386 1245 1401T1137 1430Q1129 1431 1127 1437T1127 1450T1135 1456Q1227 1446 1321 1446Q1440 1446 1532 1456Q1538 1456 1541 1450T1541 1438T1530 1430Q1455 1419 1425 1404T1370 1354Q1322
1287 1114 799L1378 199Q1381 195 1388 195T1397 199Q1519 511 1667 913T1815 1356Q1815 1386 1790 1401T1681 1430Q1674 1431 1672 1437T1671 1450T1679 1456Q1776 1446 1866 1446Q1982 1446 2079 1456Z" />
<glyph unicode="X" glyph-name="X" horiz-adv-x="1542" d="M1522 -8Q1414 0 1247 0Q1054 0 948 -8Q943 -8 941 -2T940 10T950 18Q1116 34 1118 57Q1118 84 766 629Q755 647 743 662Q471 255 424 176Q371 88 371 66Q371 39 512 18Q519 17 521 11T522 -2T514 -8Q408
0 291 0Q180 0 70 -8Q65 -8 62 -3T62 8T74 18Q97 26 158 36T231 57Q262 83 397 265T713 711Q690 747 636 832T551 965T472 1087T393 1206T329 1298T275 1370T244 1401Q225 1411 164 1418T82 1430Q73 1432 71 1438T72 1450T80 1456Q212 1446 352 1446Q503 1446 641
1456Q645 1456 647 1450T647 1437T637 1430Q483 1415 483 1391Q483 1374 575 1223T819 844Q1004 1107 1080 1227T1157 1380Q1157 1396 1129 1407T1028 1430Q1020 1431 1017 1437T1016 1450T1024 1456Q1156 1446 1272 1446Q1330 1446 1468 1456Q1473 1456 1476 1451T1477
1439T1466 1430Q1444 1423 1406 1419T1339 1406T1292 1378Q1176 1262 852 795Q895 730 1023 532T1226 225T1346 68Q1357 55 1385 46T1460 29T1520 18Q1528 16 1530 10T1530 -2T1522 -8Z" />
<glyph unicode="Y" glyph-name="Y" horiz-adv-x="1458" d="M1481 1456Q1486 1456 1488 1451T1488 1439T1477 1430Q1456 1423 1418 1419T1352 1406T1305 1378Q1212 1287 893 780Q851 714 840 675T829 543Q829 343 833 230T843 83T858 45Q872 36 929 30T1008 18Q1015
16 1017 10T1018 -2T1010 -8Q933 0 745 0Q556 0 481 -8Q475 -8 473 -3T473 9T483 18Q503 23 560 29T633 45Q641 50 645 78T654 223T659 559Q659 636 610 721Q468 967 337 1174T174 1401Q155 1411 94 1418T12 1430Q4 1432 2 1438T2 1450T10 1456Q143 1446 285 1446Q432
1446 565 1456Q570 1456 572 1450T573 1437T563 1430Q410 1416 410 1391Q410 1380 460 1286T601 1036T791 719Q1167 1302 1167 1380Q1167 1396 1139 1407T1038 1430Q1031 1431 1029 1437T1028 1450T1036 1456Q1171 1446 1284 1446Q1341 1446 1481 1456Z" />
<glyph unicode="Z" glyph-name="Z" horiz-adv-x="1388" d="M1333 397Q1328 383 1309 282T1272 88T1247 -8Q1088 0 735 0Q250 0 94 -8Q82 -9 72 9T66 35Q325 372 641 793T1073 1386Q1026 1386 854 1387T559 1389Q479 1389 418 1370T314 1310T242 1223T184 1108Q178
1095 154 1098Q145 1099 145 1104Q152 1155 186 1300T225 1479Q226 1490 240 1492T258 1489Q291 1453 371 1444T729 1434Q1121 1434 1280 1442Q1292 1443 1302 1425T1307 1401Q1105 1140 766 684T301 47Q356 47 560 49T788 51Q936 51 1012 68T1135 119Q1171 147
1223 235T1303 403Q1304 406 1312 407T1328 405T1333 397Z" />
<glyph unicode="[" glyph-name="bracketleft" horiz-adv-x="724" d="M719 -504Q727 -511 727 -518T723 -528T709 -528Q625 -502 516 -502Q404 -502 287 -530Q279 -531 273 -524T266 -508Q266 -466 275 -52T283 469Q283 486 279 492T260 500Q203 508 139 512Q134
512 132 520T132 536T141 545L264 557Q276 559 279 564T281 588Q266 1299 266 1489Q266 1498 272 1505T287 1511Q411 1485 516 1485Q631 1485 709 1509Q721 1514 726 1505T719 1487Q677 1446 596 1424T426 1411Q418 941 418 500Q418 38 426 -428Q515 -421 596 -442T719
-504Z" />
<glyph unicode="\" glyph-name="backslash" horiz-adv-x="737" d="M35 1513Q30 1526 45 1536T75 1547T94 1538Q134 1378 254 989L510 145Q535 60 609 -177T702 -469Q707 -481 693 -491T663 -502T643 -494Q631 -441 560 -197T461 131L209 963Q87 1363 35 1513Z" />
<glyph unicode="]" glyph-name="bracketright" horiz-adv-x="724" d="M586 512Q522 508 465 500Q451 499 447 493T442 469Q441 362 450 -52T459 -508Q459 -517 453 -524T438 -530Q321 -502 209 -502Q100 -502 16 -528Q8 -531 3 -528T-3 -518T6 -504Q48 -464 129
-443T299 -428Q307 38 307 500Q307 941 299 1411Q210 1402 129 1424T6 1487Q-6 1496 -1 1505T16 1509Q94 1485 209 1485Q314 1485 438 1511Q446 1512 452 1505T459 1489Q459 1299 444 588Q443 570 446 565T461 557L584 545Q590 545 592 537T593 520T586 512Z" />
<glyph unicode="^" glyph-name="asciicircum" horiz-adv-x="581" d="M528 995Q510 1019 471 1064T371 1179T287 1274Q147 1112 53 995Q50 988 40 994T35 1010Q192 1271 266 1419Q278 1444 291 1444Q306 1444 315 1419Q526 1048 549 1010Q553 999 544 994T528 995Z" />
<glyph unicode="_" glyph-name="underscore" horiz-adv-x="1024" d="M1028 53Q1037 53 1041 38T1041 7T1024 -8Q872 0 803 0H233Q152 0 0 -8Q-10 -8 -14 7T-14 37T4 53Q156 45 260 45H817Q872 45 1028 53Z" />
<glyph unicode="`" glyph-name="grave" horiz-adv-x="442" d="M158 1368Q256 1213 406 1012Q411 1006 408 1000T398 993T389 995Q363 1023 302 1080T163 1208T63 1300Q47 1317 47 1333Q47 1356 68 1374T115 1393Q141 1393 158 1368Z" />
<glyph unicode="a" glyph-name="a" horiz-adv-x="874" d="M866 74Q849 37 797 6T692 -25Q615 -25 569 88Q561 100 551 90Q414 -27 281 -27Q204 -27 146 23T88 139Q88 176 99 207T128 264T178 312T244 353T329 392T427 429T541 469Q553 473 559 475Q573 479 576
487T582 520V627Q582 739 544 788T426 838Q364 838 327 796T285 684Q281 616 258 589T188 561Q157 561 140 579T123 629Q125 680 178 740T313 841T473 883Q598 883 663 819T729 627Q729 548 720 388T711 150Q711 107 728 82T778 57Q804 57 818 62T852 84Q858 88
863 84T866 74ZM575 426Q575 441 559 438Q395 391 317 333T238 190Q238 120 271 89T371 57Q415 57 461 79T535 125T563 162Q575 256 575 426Z" />
<glyph unicode="b" glyph-name="b" horiz-adv-x="1038" d="M971 422Q971 238 842 107T518 -25Q444 -25 347 1T225 27Q200 27 186 4T168 -55Q168 -60 160 -61T144 -58T135 -47Q135 -45 138 8T145 260T150 758Q150 1040 148 1187T140 1387T125 1446Q100 1462 25
1473Q13 1475 13 1482T23 1491Q197 1520 297 1591Q307 1597 314 1590T319 1575Q314 1556 311 1527T305 1465T303 1430L293 760Q293 756 300 753T309 752Q459 866 571 866Q673 866 751 832T877 736T947 596T971 422ZM811 406Q811 588 730 684T489 780Q447 780 413
772T357 752T322 726T301 702T295 686V430Q295 294 301 225T320 128T358 76Q426 8 530 8Q665 8 738 112T811 406Z" />
<glyph unicode="c" glyph-name="c" horiz-adv-x="870" d="M846 166Q831 114 779 69T658 0T526 -25Q417 -25 328 13T184 117T98 264T68 436Q68 556 124 658T287 822T526 885Q652 885 736 842T821 737Q821 702 792 675T725 647Q691 647 670 667T635 715T607 772T558
820T475 840Q369 840 299 735T229 453Q229 285 324 176T582 66Q654 66 723 97T825 178Q830 185 839 181T846 166Z" />
<glyph unicode="d" glyph-name="d" horiz-adv-x="1046" d="M1020 39Q876 -1 807 -31Q803 -34 797 -31T788 -20Q766 34 760 106Q760 111 753 114T743 115Q692 53 617 14T459 -25Q280 -25 174 102T68 420Q68 602 198 734T522 866Q651 866 739 827Q758 823 758 836Q757
1052 756 1170T751 1349T743 1426T729 1446Q705 1462 629 1473Q617 1475 617 1482T627 1491Q704 1504 780 1530T903 1591Q911 1597 919 1590T926 1575Q909 1519 909 1430L905 410Q904 281 906 211T913 120T924 90Q954 57 1018 57Q1030 57 1030 49Q1029 41 1020
39ZM758 418Q760 539 750 609T725 707T680 764Q612 829 494 829Q372 829 301 725T229 436Q229 261 310 161T528 61Q595 61 641 79T731 141Q754 167 754 193L758 418Z" />
<glyph unicode="e" glyph-name="e" horiz-adv-x="886" d="M840 563Q836 554 819 549T768 544T700 544T608 547T506 549Q287 549 236 547Q229 512 229 451Q229 280 317 172T569 63Q640 63 702 89T799 160Q802 163 807 163T816 159T817 147Q787 73 697 23T512 -27Q404
-27 318 11T178 115T96 262T68 434Q68 555 121 656T275 820T504 883Q561 883 611 869T697 831T761 777T807 715T834 654T845 601T840 563ZM672 584Q674 604 675 635T665 703T635 772T580 826T494 848Q312 848 240 578Q244 578 506 582Q671 582 672 584Z" />
<glyph unicode="f" glyph-name="f" horiz-adv-x="643" d="M831 1440Q831 1409 805 1383T745 1356Q710 1356 679 1373T627 1410T574 1447T502 1464Q447 1464 415 1430T367 1319Q340 1196 340 854Q483 854 635 862Q645 862 649 837T649 786T633 762Q516 768 340
768V528Q340 53 367 39Q379 31 445 26T530 16Q545 13 541 0Q539 -7 532 -6Q443 0 266 0Q132 0 53 -6Q45 -8 45 2T55 16Q71 20 112 25T168 39Q177 44 181 79T189 276T193 764Q73 768 27 764Q21 764 19 774T20 795T31 807Q116 820 170 854Q193 870 193 901Q193 1061
227 1187T323 1392T465 1513T641 1554Q831 1554 831 1440Z" />
<glyph unicode="g" glyph-name="g" horiz-adv-x="917" d="M922 815Q922 768 899 768Q887 768 817 778T725 791Q719 792 716 785T715 774Q797 683 797 561Q797 431 695 343T446 254Q355 254 289 223T223 164Q223 129 280 110T428 90Q710 90 815 35Q907 -14 907
-121Q907 -171 887 -224T823 -329T717 -422T562 -488T360 -514Q209 -514 98 -441T-14 -272Q-14 -191 85 -117T311 -31Q317 -31 315 -12Q216 -8 146 39T76 137Q76 167 96 190Q101 195 131 203T207 226T287 258Q295 264 292 273Q291 276 289 276Q198 316 144 399T90
578Q90 707 192 795T438 883Q470 883 586 871T758 858Q839 858 897 870Q909 873 915 860T922 815ZM647 541Q647 674 587 762T428 850Q347 850 295 783T242 598Q242 465 302 377T459 289Q541 289 594 356T647 541ZM809 -207Q809 -119 720 -83T424 -47Q321 -47 233
-102T145 -246Q145 -343 229 -399T453 -455Q598 -455 703 -380T809 -207Z" />
<glyph unicode="h" glyph-name="h" horiz-adv-x="1050" d="M1047 -6Q966 0 834 0Q722 0 633 -6Q626 -7 625 1Q624 13 635 16Q652 20 674 23T709 30T733 39Q773 60 760 598Q757 695 701 739T551 784Q428 784 336 682Q315 660 315 629V430Q315 259 318 174T327 67T342
39Q353 33 366 30T401 24T440 16Q453 12 450 0Q449 -7 442 -6Q354 0 244 0Q108 0 29 -6Q22 -7 21 1Q19 13 31 16Q49 20 74 23T115 29T143 39Q153 44 158 77T166 271T170 758Q170 974 169 1104T165 1310T157 1414T145 1446Q122 1462 45 1473Q30 1475 35 1486Q37
1490 41 1491Q118 1504 194 1530T319 1591Q328 1597 335 1590T340 1575Q326 1525 326 1430L313 723Q313 718 320 716T330 715Q487 885 643 885Q770 885 837 807T905 598Q905 366 908 242T917 80T932 39Q943 33 959 30T1001 23T1044 16Q1057 12 1055 0Q1053 -7 1047
-6Z" />
<glyph unicode="i" glyph-name="i" horiz-adv-x="518" d="M358 1335Q358 1294 329 1265T254 1235Q213 1235 186 1259T158 1323Q158 1368 191 1399T268 1430Q308 1430 333 1404T358 1335ZM481 -6Q392 0 268 0Q136 0 55 -6Q47 -8 47 2T57 16Q73 20 114 25T170 39Q179
44 184 65T192 172T195 430Q195 610 190 665T170 735Q143 763 80 774Q64 778 70 788Q72 792 76 793Q121 801 173 826T252 868T328 920Q336 926 344 919T350 905Q347 896 346 876T345 838T345 785T346 731L342 430Q340 260 343 173T352 66T369 39Q379 33 395 30T437
23T479 16Q494 13 490 0Q488 -7 481 -6Z" />
<glyph unicode="j" glyph-name="j" horiz-adv-x="497" d="M358 1335Q358 1294 328 1265T252 1235Q212 1235 185 1259T158 1323Q158 1368 191 1399T266 1430T333 1404T358 1335ZM356 905Q346 862 346 731L342 106Q341 15 335 -52T305 -200T243 -341T133 -462T-35
-567Q-45 -571 -47 -564T-43 -551Q93 -467 144 -325T195 106V430Q195 610 190 665T170 735Q143 763 78 774Q62 778 69 788Q72 792 76 793Q132 803 210 842T334 920Q342 927 350 920T356 905Z" />
<glyph unicode="k" glyph-name="k" horiz-adv-x="954" d="M1032 -6Q956 0 821 0Q670 0 594 -6Q587 -7 585 2Q583 14 594 16Q698 26 698 53Q694 90 461 358Q415 410 391 423T315 426Q317 215 321 130T338 39Q349 33 363 30T400 24T440 16Q453 13 450 0Q448 -7 442
-6Q354 0 236 0Q108 0 29 -6Q20 -8 20 2T31 16Q49 20 74 23T115 29T143 39Q153 44 158 77T166 271T170 758Q170 1175 165 1306T143 1446Q119 1462 43 1473Q28 1475 34 1486Q37 1490 41 1491Q118 1504 194 1530T317 1591Q326 1597 334 1590T340 1575Q324 1518 324
1430L315 528V475Q325 475 333 475T349 476T362 479T373 482T383 487T392 492T401 499T410 507T421 518T434 530Q503 594 558 655T638 751T664 797T659 814T629 829T559 844Q552 845 551 850T551 861T559 866Q630 858 784 858Q845 858 926 864Q933 864 935 854Q937
845 926 842Q904 837 872 832T817 819Q789 809 736 762T553 588Q507 543 481 518Q559 432 677 298T850 104T922 39Q938 33 953 30T991 24T1032 16Q1048 13 1042 0Q1038 -7 1032 -6Z" />
<glyph unicode="l" glyph-name="l" horiz-adv-x="505" d="M467 -6Q378 0 254 0Q120 0 41 -6Q33 -8 33 2T43 16Q59 20 100 25T156 39Q165 44 169 78T177 271T180 758Q180 1183 176 1310T156 1446Q130 1462 55 1473Q41 1475 45 1485Q47 1490 53 1491Q230 1520 330
1591Q338 1597 346 1590T352 1575Q336 1518 336 1430L328 528Q328 53 354 39Q364 33 380 30T422 23T465 16Q479 13 475 0Q473 -7 467 -6Z" />
<glyph unicode="m" glyph-name="m" horiz-adv-x="1581" d="M1575 -6Q1496 0 1362 0Q1262 0 1174 -6Q1165 -8 1165 2T1176 16Q1190 19 1205 22T1228 26T1245 31T1262 39Q1301 59 1288 629Q1285 778 1108 778Q1043 778 996 754T905 682Q885 660 885 629V610Q885
380 888 251T896 83T909 39Q920 33 933 30T969 24T1008 16Q1022 13 1018 0Q1016 -7 1010 -6Q932 0 811 0Q712 0 623 -6Q614 -8 614 2T625 16Q641 20 661 23T691 30T713 39Q753 61 737 598Q734 698 691 741T557 784Q493 784 447 758T354 682Q334 660 334 629L338
430Q342 165 346 106T362 39Q373 33 383 30T414 24T451 16Q465 13 461 0Q459 -7 453 -6Q363 0 264 0Q127 0 51 -6Q43 -8 43 2T53 16Q69 20 110 25T166 39Q174 44 178 64T186 173T190 430Q190 610 186 658T166 721Q139 743 74 750Q59 752 64 762Q66 767 72 768Q106
778 144 799T199 833T260 881T307 920Q316 926 323 922T330 909Q318 840 315 709Q315 704 323 702T334 702Q505 885 649 885Q818 885 870 719Q871 714 879 712T889 711Q971 793 1045 835T1200 877Q1436 877 1436 629Q1436 393 1439 264T1446 89T1460 39Q1474 31
1515 26T1573 16Q1587 13 1583 0Q1581 -7 1575 -6Z" />
<glyph unicode="n" glyph-name="n" horiz-adv-x="1044" d="M1038 -6Q958 0 825 0Q716 0 627 -6Q618 -8 618 2T629 16Q646 20 668 23T703 30T727 39Q767 60 752 598Q747 784 557 784Q493 784 447 758T354 682Q334 660 334 629L338 430Q342 165 346 106T362 39Q376
31 414 26T467 16Q480 13 478 0Q476 -7 471 -6Q369 0 264 0Q127 0 51 -6Q43 -8 43 2T53 16Q69 20 110 25T166 39Q174 44 178 64T186 173T190 430Q190 605 185 655T166 721Q139 743 74 750Q62 752 62 759T72 768Q106 778 144 799T199 833T260 881T307 920Q316 926
323 922T330 909Q318 840 315 709Q315 704 323 702T334 702Q501 885 649 885Q776 885 837 809T899 598Q899 363 902 241T910 81T924 39Q935 33 951 30T993 23T1036 16Q1051 13 1047 0Q1045 -7 1038 -6Z" />
<glyph unicode="o" glyph-name="o" horiz-adv-x="1030" d="M963 422Q963 302 908 201T750 37T518 -25Q409 -25 322 13T180 117T97 264T68 436Q68 556 122 658T279 822T510 885Q619 885 707 847T850 743T934 595T963 422ZM803 406Q803 527 767 627T661 788T500
850Q381 850 305 737T229 453Q229 268 312 138T530 8Q650 8 726 121T803 406Z" />
<glyph unicode="p" glyph-name="p" horiz-adv-x="1060" d="M993 420Q993 302 935 200T772 35T539 -27Q432 -27 334 33Q330 36 324 34T317 25Q317 -166 320 -271T328 -410T342 -451Q356 -458 422 -463T508 -473Q522 -477 518 -490Q516 -497 510 -496Q377 -487 244
-487Q146 -487 31 -496Q23 -498 22 -487Q20 -476 33 -473Q51 -469 76 -466T117 -460T145 -451Q161 -441 166 -359T170 -59V430Q170 607 165 656T143 719Q119 743 53 750Q39 752 43 762Q45 767 51 768Q74 774 98 785T139 806T181 834T216 861T253 893T285 920Q294
927 301 922T307 907Q295 835 295 713Q295 708 302 705T311 705Q442 866 602 866Q781 866 887 739T993 420ZM831 403Q831 580 750 680T532 780Q466 780 426 763T344 700Q322 678 322 647L317 403Q314 283 324 214T348 119T393 63Q426 34 464 22T567 10Q688 10 759
114T831 403Z" />
<glyph unicode="q" glyph-name="q" horiz-adv-x="1011" d="M1051 -496Q916 -487 815 -487Q701 -487 582 -496Q574 -497 573 -487Q573 -476 584 -473Q602 -469 652 -464T717 -451Q726 -446 730 -425T738 -318T741 -59Q741 12 743 51Q743 59 725 59Q614 -27 467
-27Q365 -27 287 8T162 105T92 246T68 420Q68 538 125 640T287 804T520 866Q593 866 691 841T813 815Q859 815 870 897Q870 901 878 901T894 899T903 889Q889 574 889 -59Q889 -214 892 -298T900 -414T915 -451Q929 -458 980 -463T1049 -473Q1062 -477 1059 -490Q1057
-497 1051 -496ZM743 412Q743 548 737 617T718 714T680 766Q644 798 605 816T508 834Q373 834 300 730T227 436Q227 253 308 154T549 55Q591 55 625 61T679 75T714 93T733 111T739 125L743 412Z" />
<glyph unicode="r" glyph-name="r" horiz-adv-x="749" d="M729 791Q729 748 706 721T643 694Q617 694 594 714T549 754T504 774Q461 774 437 755T354 668Q334 644 334 614L338 430Q342 165 346 106T362 39Q376 31 437 26T518 16Q531 12 526 -1Q524 -7 520 -6Q432
0 264 0Q130 0 51 -6Q43 -8 43 2T53 16Q69 20 110 25T166 39Q175 44 179 65T187 172T190 430Q190 607 185 664T166 735Q137 764 74 774Q64 777 64 784T72 793Q117 801 169 826T248 868T324 920Q332 926 340 919T346 905Q340 885 334 822T328 705Q328 698 344 696Q387
775 458 835T588 895Q654 895 691 869T729 791Z" />
<glyph unicode="s" glyph-name="s" horiz-adv-x="706" d="M653 248Q653 131 563 53T328 -25Q281 -25 213 -7T113 29Q99 38 86 103T70 238Q70 245 75 248T87 249T94 242Q112 165 192 91T348 16Q427 16 472 61T518 184Q518 227 495 262T435 322T354 369T265 416T183
467T123 534T100 623Q100 736 183 810T397 885Q440 885 497 875T575 852Q600 839 600 664Q600 656 595 653T583 652T575 659Q566 720 501 782T371 844Q305 844 268 806T231 705Q231 661 254 626T315 567T397 521T487 474T569 420T629 347T653 248Z" />
<glyph unicode="t" glyph-name="t" horiz-adv-x="710" d="M680 82Q643 39 571 7T436 -25Q383 -25 344 -12T281 24T243 80T224 148T219 227Q219 324 221 539T223 774Q102 778 55 774Q50 774 49 784T49 804T59 817Q158 841 234 905T356 1061Q360 1067 369 1067T385
1063T391 1055Q380 921 379 872Q379 860 397 860Q514 860 666 868Q676 869 680 844T679 793T662 768Q510 776 369 776Q369 736 367 539T365 254Q365 151 396 99T504 47Q602 47 668 98Q675 103 680 90Q682 84 680 82Z" />
<glyph unicode="u" glyph-name="u" horiz-adv-x="1036" d="M991 39Q856 2 780 -31Q769 -39 762 -20Q738 54 735 127Q735 131 728 134T719 135Q584 -25 420 -25Q295 -25 232 60T172 281Q179 574 176 677T158 801Q152 809 117 821T47 838Q39 839 37 844T38 855T45
860Q193 864 307 868Q318 869 328 863T336 848Q334 825 330 766T324 684Q312 522 315 307Q315 186 360 124T489 61Q606 61 707 162Q720 177 724 186T729 213L733 424Q739 761 719 791Q699 817 606 844Q599 846 597 851T598 861T606 866Q658 860 741 860T858 864Q868
864 878 856T889 842Q877 775 877 678V410Q872 225 876 167T895 90Q925 57 989 57Q1005 57 999 46Q996 40 991 39Z" />
<glyph unicode="v" glyph-name="v" horiz-adv-x="917" d="M961 844Q942 839 922 836T890 829T864 819Q844 810 812 757T732 594T641 386T529 114Q493 27 475 -18Q472 -28 450 -28T426 -20Q373 110 282 349T143 700T76 819Q59 827 21 833T-37 844Q-45 846 -47 851T-46
861T-37 866Q34 858 160 858Q364 858 432 866Q437 866 439 862T441 852T432 844Q416 839 379 837T314 830T283 817Q271 795 324 642T502 158Q733 745 733 793Q733 811 707 822T610 844Q603 845 602 850T602 861T610 866Q679 858 807 858Q889 858 961 866Q966 866
969 862T970 852T961 844Z" />
<glyph unicode="w" glyph-name="w" horiz-adv-x="1351" d="M1395 844Q1376 839 1339 833T1284 819Q1266 811 1242 768T1183 639T1116 466T1029 236T932 -18Q927 -28 906 -28T881 -20L709 481L475 -18Q470 -28 448 -28T422 -20Q402 33 371 115T320 250T273 375T227
494T186 596T149 685T118 752T92 800T74 819Q58 827 20 833T-37 844Q-44 846 -45 851T-44 861T-37 866Q34 858 156 858Q317 858 385 866Q390 866 392 862T394 852T385 844Q369 839 341 837T295 830T272 817Q266 802 292 727T390 465T506 158Q545 244 604 371T686
549Q595 807 567 819Q555 826 543 829T511 835T471 844Q464 846 463 851T464 861T471 866Q542 858 664 858Q837 858 905 866Q910 866 913 862T914 852T905 844Q889 839 855 837T796 830T768 817Q761 802 782 729T862 481T963 166Q1059 419 1114 589T1169 793Q1169
810 1136 820T1026 844Q1019 845 1018 850T1018 861T1026 866Q1094 858 1245 858Q1326 858 1395 866Q1400 866 1403 862T1404 852T1395 844Z" />
<glyph unicode="x" glyph-name="x" horiz-adv-x="919" d="M895 -6Q837 0 715 0Q574 0 498 -6Q489 -8 488 3T498 16Q600 26 600 66Q600 83 551 169T420 377Q339 274 277 176T215 55Q215 38 232 32T309 16Q322 14 318 1Q315 -7 309 -6Q232 0 147 0Q87 0 23 -4Q14
-6 12 4T23 16Q78 28 102 39Q147 58 395 401Q147 801 111 819Q81 834 27 844Q18 845 16 850T18 861T27 866Q82 858 193 858Q353 858 424 866Q431 866 432 855T424 844Q322 833 322 795Q322 755 485 500Q562 597 620 690T678 803Q678 820 663 826T595 842Q586 843
582 844Q575 845 574 850T575 861T582 866Q653 858 743 858Q814 858 883 864Q888 864 891 859T893 849T883 842Q814 834 791 819Q746 794 512 475Q776 55 811 39Q852 21 895 16Q909 13 904 0Q901 -7 895 -6Z" />
<glyph unicode="y" glyph-name="y" horiz-adv-x="946" d="M975 866Q980 866 983 862T984 852T973 844Q956 841 934 838T899 832T874 821Q818 788 596 190Q491 -96 423 -242T300 -450T180 -512Q122 -512 92 -489T61 -426Q61 -390 85 -365T150 -340Q180 -340 210
-356T256 -373Q292 -373 345 -277T461 -6Q125 798 76 821Q62 827 47 830T6 837T-37 844Q-44 846 -46 851T-45 861T-37 866Q69 858 160 858Q328 858 434 866Q439 866 442 862T443 852T434 844Q418 840 380 838T315 831T283 819Q273 796 337 638T539 180Q637 426
691 590T745 795Q745 813 720 822T623 844Q612 846 614 856T625 866Q727 858 821 858Q868 858 891 859T938 862T975 866Z" />
<glyph unicode="z" glyph-name="z" horiz-adv-x="841" d="M786 215Q782 205 766 146T735 38T713 -10Q600 0 418 0Q241 0 68 -10Q56 -10 51 -4T51 8Q135 122 582 807Q517 813 365 813Q276 813 224 768T137 627Q133 617 121 622T111 635Q139 785 147 877Q149 888
159 888T174 881Q180 868 198 862T291 850T506 844Q559 844 651 847T758 854Q769 857 774 850T774 836Q705 739 506 438T244 37Q308 31 473 31Q580 31 648 81T762 225Q768 235 778 229T786 215Z" />
<glyph unicode="{" glyph-name="braceleft" horiz-adv-x="724" d="M557 -504Q563 -508 563 -514T559 -525T553 -530Q400 -476 330 -394T260 -193Q260 -132 304 17T348 242Q348 355 282 417T88 479Q78 479 78 493T88 508Q215 508 281 570T348 745Q348 820 304 969T260
1180Q260 1297 330 1380T553 1518Q555 1519 559 1513T563 1501T557 1491Q478 1461 448 1401T418 1253Q418 1203 452 1053T487 817Q487 668 389 580Q323 520 174 494Q324 466 389 408Q487 319 487 170Q487 85 453 -65T418 -266Q418 -354 448 -414T557 -504Z" />
<glyph unicode="|" glyph-name="bar" horiz-adv-x="409" d="M240 -487Q241 -496 224 -500T189 -500T172 -483Q178 -370 178 147V985Q178 1418 172 1532Q171 1541 188 1544T223 1544T240 1528Q231 1357 231 958V133Q231 44 234 -196T240 -487Z" />
<glyph unicode="}" glyph-name="braceright" horiz-adv-x="724" d="M637 479Q510 479 444 417T377 242Q377 167 421 18T465 -193Q465 -311 395 -393T172 -530Q170 -531 166 -526T162 -514T168 -504Q247 -474 277 -414T307 -266Q307 -216 273 -66T238 170Q238 319
336 408Q401 466 551 494Q402 520 336 580Q238 668 238 817Q238 902 272 1052T307 1253Q307 1341 277 1401T168 1491Q162 1495 162 1501T166 1513T172 1518Q325 1464 395 1381T465 1180Q465 1119 421 970T377 745Q377 632 443 570T637 508Q648 508 648 494T637
479Z" />
<glyph unicode="~" glyph-name="asciitilde" horiz-adv-x="811" d="M733 578Q721 540 713 519T690 471T659 431T617 407T557 397Q493 397 397 414Q304 428 260 428Q188 428 154 403T92 317Q90 312 84 312T73 316T70 326Q98 430 142 482T266 535Q311 535 420 520Q530
504 580 504Q621 504 646 514T683 539T715 590Q717 594 722 594T731 590T733 578Z" />
</font>
</defs>
</svg>
